<?xml version="1.0" encoding="UTF-8"?>
<!-- The Best Svg Icon site in the world: iconSvg.co, Visit us! https://iconsvg.co -->
<svg fill="#000000" width="800px" height="800px" version="1.1" viewBox="144 144 512 512" xmlns="http://www.w3.org/2000/svg">
 <g>
  <path d="m360.64 368.51h31.488c4.3477 0 7.875-3.5273 7.875-7.875 0-4.3477-3.5273-7.8711-7.875-7.8711h-31.488c-4.3477 0-7.8711 3.5234-7.8711 7.8711 0 4.3477 3.5234 7.875 7.8711 7.875z"/>
  <path d="m360.64 494.46h47.234c4.3477 0 7.8711-3.5234 7.8711-7.8711s-3.5234-7.8711-7.8711-7.8711h-47.234c-4.3477 0-7.8711 3.5234-7.8711 7.8711s3.5234 7.8711 7.8711 7.8711z"/>
  <path d="m439.36 510.21h-78.723c-4.3477 0-7.8711 3.5234-7.8711 7.8711s3.5234 7.8711 7.8711 7.8711h78.723c4.3477 0 7.8711-3.5234 7.8711-7.8711s-3.5234-7.8711-7.8711-7.8711z"/>
  <path d="m549.57 541.7h-39.359v-149.57c0-2.0859-0.82812-4.0898-2.3047-5.5664-1.4766-1.4766-3.4805-2.3047-5.5664-2.3047h-23.617v-118.08c0-2.0898-0.82812-4.0898-2.3047-5.5664-1.4766-1.4766-3.4805-2.3086-5.5664-2.3086h-133.82v-70.848c0-2.0859-0.83203-4.0898-2.3086-5.5664-1.4727-1.4766-3.4766-2.3047-5.5664-2.3047h-78.719c-4.3477 0-7.8711 3.5234-7.8711 7.8711s3.5234 7.8711 7.8711 7.8711h39.359v320.31c-16.258 7.625-27.777 22.695-30.879 40.383-3.0977 17.688 2.6172 35.777 15.316 48.473 12.695 12.699 30.785 18.41 48.473 15.312 17.688-3.0977 32.754-14.621 40.379-30.879h186.49c2.0898 0 4.0898-0.82812 5.5664-2.3047 1.4766-1.4766 2.3047-3.4766 2.3047-5.5664v-31.488c0-2.0859-0.82812-4.0898-2.3047-5.5664-1.4766-1.4766-3.4766-2.3047-5.5664-2.3047zm-55.105 0h-131.38c-5.4375-11.418-14.637-20.617-26.055-26.059v-115.64h47.23v55.105-0.003907c0 2.0898 0.82812 4.0898 2.3047 5.5664 1.4766 1.4766 3.4805 2.3086 5.5664 2.3086h47.234c2.0859 0 4.0898-0.83203 5.5664-2.3086 1.4766-1.4766 2.3047-3.4766 2.3047-5.5664v-55.102h47.23zm-94.461-141.7h31.488v47.23h-31.488zm15.742-125.95v47.23h-31.488v-47.23zm-47.23 0v55.105-0.003906c0 2.0898 0.82812 4.0938 2.3047 5.5664 1.4766 1.4766 3.4766 2.3086 5.5664 2.3086h47.23c2.0898 0 4.0898-0.83203 5.5664-2.3086 1.4766-1.4727 2.3086-3.4766 2.3086-5.5664v-55.102h31.488v110.21h-125.95v-110.21zm-62.977-78.723h15.742v315.51c-5.2148-0.83984-10.527-0.83984-15.742 0zm7.8711 409.34v0.003906c-10.438 0-20.449-4.1484-27.832-11.527-7.3828-7.3828-11.527-17.395-11.527-27.832 0-10.441 4.1445-20.453 11.527-27.832 7.3828-7.3828 17.395-11.531 27.832-11.531s20.449 4.1484 27.832 11.531c7.3828 7.3789 11.527 17.391 11.527 27.832 0 10.438-4.1445 20.449-11.527 27.832-7.3828 7.3789-17.395 11.527-27.832 11.527zm228.29-31.488-173.82 0.003906c0.83984-5.2148 0.83984-10.531 0-15.746h173.82z"/>
  <path d="m313.41 541.7c-6.2617 0-12.27 2.4883-16.699 6.918-4.4297 4.4258-6.918 10.434-6.918 16.699 0 6.2617 2.4883 12.27 6.918 16.699 4.4297 4.4258 10.438 6.9141 16.699 6.9141s12.27-2.4883 16.699-6.9141c4.4297-4.4297 6.918-10.438 6.918-16.699 0-6.2656-2.4883-12.273-6.918-16.699-4.4297-4.4297-10.438-6.918-16.699-6.918zm0 31.488c-3.1836 0-6.0547-1.918-7.2734-4.8594-1.2188-2.9414-0.54297-6.3281 1.707-8.5781 2.25-2.2539 5.6367-2.9258 8.5781-1.707 2.9414 1.2188 4.8594 4.0898 4.8594 7.2734 0 2.0859-0.82812 4.0898-2.3047 5.5664-1.4766 1.4766-3.4805 2.3047-5.5664 2.3047z"/>
 </g>
</svg>