<?xml version="1.0" encoding="UTF-8"?>
<!-- The Best Svg Icon site in the world: iconSvg.co, Visit us! https://iconsvg.co -->
<svg fill="#000000" width="800px" height="800px" version="1.1" viewBox="144 144 512 512" xmlns="http://www.w3.org/2000/svg">
 <path d="m615.5 237.14h-431c-19.531 0-35.426 15.891-35.426 35.426v254.86c0 19.531 15.891 35.426 35.426 35.426h430.99c19.531 0 35.426-15.891 35.426-35.426v-254.86c0-19.535-15.891-35.426-35.422-35.426zm-277.42 47.234h247.07c2.6484 8.875 9.6602 15.883 18.535 18.535v24.27h-212.74c-5.0117-12.664-17.371-21.648-31.797-21.648-7.9453 0-15.266 2.7305-21.074 7.2969zm3.0781 51.348c1.832-8.2539 9.1992-14.449 17.996-14.449 10.172 0 18.445 8.2734 18.445 18.445v33.543c0 10.172-8.2773 18.445-18.445 18.445-8.7969 0-16.164-6.1953-17.996-14.445 4.0312-5.9258 6.3945-13.078 6.3945-20.773-0.003906-7.6875-2.3633-14.84-6.3945-20.766zm17.996 71.734c7.6875 0 14.793-2.5547 20.512-6.8555 4.457 15.266 7.6953 31.141 9.6328 47.52 0.14453 1.2148-0.50391 1.8906-1.0703 2.2422-0.55078 0.34375-1.4219 0.61719-2.4141-0.027344l-12.066-7.8281c-6.1523-3.9922-14.023-3.875-20.055 0.30078l-11.453 7.9297c-0.92969 0.64453-1.7891 0.43359-2.3438 0.14453-0.55469-0.28906-1.2148-0.875-1.2148-2.0078v-48.258c5.707 4.293 12.797 6.8398 20.473 6.8398zm-21.074 59.203c0.95312 0.15625 1.9102 0.23828 2.8711 0.23828 3.5938 0 7.168-1.082 10.246-3.2109l11.453-7.9297c0.75781-0.52734 1.75-0.53906 2.5234-0.039063l12.07 7.8281c5.918 3.8398 13.312 3.9102 19.301 0.1875 6.0078-3.7383 9.2188-10.43 8.3867-17.461-2.5195-21.289-7.1016-41.789-13.656-61.289 0.32422-0.88281 0.60547-1.7852 0.85547-2.7031h211.56v114.8c-8.875 2.6484-15.883 9.6602-18.535 18.535h-247.07zm-39.359-212.79h23.617v67.543c-3.7109-1.2539-7.6797-1.9414-11.809-1.9414s-8.0977 0.69141-11.809 1.9414zm-133.9 89.051h62.887v23.617h-62.887zm118.15 204.18h-98.473c-10.852 0-19.68-8.8281-19.68-19.68v-145.14h15.742v121.52c0 4.3477 3.5234 7.8711 7.8711 7.8711 6.5117 0 11.809 5.2969 11.809 11.809 0 4.3477 3.5234 7.8711 7.8711 7.8711h74.855zm0-31.488h-68.129c-2.6484-8.8711-9.6602-15.883-18.535-18.531v-114.8h32.613c0.25 0.91406 0.53125 1.8203 0.85547 2.7031-6.5547 19.5-11.137 40-13.66 61.289-0.83203 7.0312 2.3828 13.723 8.3867 17.461 5.9883 3.7227 13.383 3.6523 19.301-0.18359l12.07-7.8281c0.77344-0.50391 1.7656-0.48828 2.5234 0.039063l11.453 7.9297c3.0781 2.1328 6.6523 3.2109 10.246 3.2109 0.96094 0 1.918-0.082031 2.8711-0.23828zm-3.0742-138.35c-1.832 8.2539-9.1992 14.445-17.996 14.445-10.172 0-18.445-8.2734-18.445-18.445v-33.543c-0.003906-10.172 8.2695-18.449 18.441-18.449 8.7969 0 16.164 6.1953 17.996 14.445-4.0312 5.9258-6.3945 13.078-6.3945 20.773 0.003906 7.6953 2.3633 14.848 6.3984 20.773zm-18 30.191c7.6758 0 14.766-2.5469 20.477-6.8359v48.258c0 1.1328-0.66016 1.7188-1.2148 2.0078-0.55469 0.29297-1.4102 0.50391-2.3438-0.14453l-11.453-7.9297c-3.0938-2.1406-6.668-3.2148-10.25-3.2148-3.4023 0-6.8047 0.96875-9.8047 2.9141l-12.07 7.8281c-0.99219 0.64453-1.8594 0.37109-2.4141 0.027344-0.56641-0.35156-1.2148-1.0273-1.0703-2.2422 1.9414-16.383 5.1758-32.254 9.6328-47.52 5.7188 4.2969 12.824 6.8516 20.512 6.8516zm21.074-94.633c-5.8086-4.5625-13.125-7.293-21.074-7.293-14.426 0-26.785 8.9844-31.797 21.648h-33.793v-24.27c8.875-2.6484 15.883-9.6602 18.535-18.535h68.129zm0-44.195h-74.855c-4.3477 0-7.8711 3.5234-7.8711 7.8711 0 6.5117-5.2969 11.809-11.809 11.809-4.3477 0-7.8711 3.5234-7.8711 7.8711v31h-15.746v-54.613c0-10.852 8.8281-19.68 19.68-19.68h98.473zm39.363 277.49h-23.617v-154.54c3.7109 1.2539 7.6797 1.9414 11.809 1.9414s8.0977-0.69141 11.809-1.9414zm-11.809-168.34c-11.734 0-21.277-9.5469-21.277-21.277 0-11.734 9.5469-21.277 21.277-21.277 11.734 0 21.277 9.5469 21.277 21.277s-9.5469 21.277-21.277 21.277zm324.65 149.65c0 10.852-8.8281 19.68-19.68 19.68h-277.42v-15.742h253.8c4.3477 0 7.8711-3.5234 7.8711-7.8711 0-6.5117 5.2969-11.809 11.809-11.809 4.3477 0 7.8711-3.5234 7.8711-7.8711v-121.53h15.742zm0-160.88h-241.83v-23.617h241.83zm0-39.359h-15.742v-30.996c0-4.3477-3.5234-7.8711-7.8711-7.8711-6.5117 0-11.809-5.2969-11.809-11.809 0-4.3477-3.5234-7.8711-7.8711-7.8711l-253.8-0.003907v-15.742h277.42c10.852 0 19.68 8.8281 19.68 19.68z"/>
</svg>