<?xml version="1.0" encoding="UTF-8"?>
<!-- The Best Svg Icon site in the world: iconSvg.co, Visit us! https://iconsvg.co -->
<svg width="800px" height="800px" version="1.1" viewBox="144 144 512 512" xmlns="http://www.w3.org/2000/svg">
 <defs>
  <clipPath id="a">
   <path d="m203 148.09h394v503.81h-394z"/>
  </clipPath>
 </defs>
 <path d="m420.86 391.26v-27.082h-41.723v27.082c-16.984 6.5273-29.914 20.656-34.918 38.148-5.0039 17.496-1.4961 36.324 9.4688 50.844 10.965 14.523 28.113 23.051 46.312 23.027 4.6797 0.050781 9.1289 2.0469 12.277 5.5078 0.49609 0.53906 0.94531 1.1172 1.3398 1.7344 1.793 2.707 2.75 5.8828 2.7539 9.1289 0 5.8516-3.1211 11.258-8.1875 14.18-5.0625 2.9258-11.305 2.9258-16.371 0-5.0664-2.9219-8.1875-8.3281-8.1875-14.18v-3.9375l-41.484 0.003906v3.9375-0.003906c-0.03125 11.691 3.4922 23.113 10.098 32.758 6.6094 9.6406 15.988 17.051 26.898 21.246v27.078h41.723v-27.078c16.914-6.5742 29.77-20.695 34.734-38.148 4.9688-17.453 1.4688-36.227-9.4492-50.719-10.922-14.492-28-23.035-46.145-23.074-4.6953-0.0625-9.1523-2.0898-12.281-5.5898-0.49609-0.53516-0.94141-1.1172-1.3398-1.7305-1.7773-2.7148-2.7344-5.8867-2.7539-9.1328 0.050781-3.2031 0.97656-6.332 2.6758-9.0508 3.0781-4.5156 8.1914-7.2188 13.66-7.2188 5.4648 0 10.578 2.7031 13.656 7.2188 1.7578 2.7227 2.7148 5.8867 2.7539 9.1289v3.9375h41.484v-3.9375h0.003906c0.042969-11.703-3.4727-23.141-10.078-32.801-6.6094-9.6602-16-17.078-26.922-21.277zm2.7539 50.066c-0.48047-3.4805-1.6602-6.8281-3.4609-9.8398-4.8516-7.1875-13.168-11.238-21.816-10.629-8.6484 0.60547-16.316 5.7852-20.113 13.578s-3.1484 17.023 1.7031 24.207c0.64844 0.9375 1.3594 1.832 2.125 2.6758 4.6133 5.0273 11.125 7.8828 17.949 7.875 13.75 0.015626 26.883 5.7109 36.289 15.742 8.8672 9.2773 13.781 21.645 13.695 34.48-0.046875 10.477-3.3867 20.672-9.5469 29.148-6.1602 8.4727-14.824 14.801-24.773 18.082l-2.6758 0.86719v25.348h-25.977l-0.003907-24.797-2.7539-0.86719c-9.3711-3.0703-17.621-8.8555-23.699-16.617-6.082-7.7656-9.7266-17.16-10.465-26.992h26.293c0.58594 3.4141 1.8438 6.6797 3.6992 9.6016 4.8516 7.1875 13.168 11.238 21.816 10.629 8.6484-0.60547 16.316-5.7852 20.113-13.578 3.7969-7.793 3.1484-17.023-1.7031-24.207-0.62891-0.95312-1.3398-1.8477-2.125-2.6758-4.625-5.0117-11.133-7.8633-17.949-7.875-15.977-0.058594-30.969-7.7266-40.367-20.645-9.3945-12.922-12.074-29.543-7.2109-44.762s16.688-27.207 31.836-32.285l2.6758-0.86719v-24.871h25.977v24.797l2.6758 0.86719v-0.003906c9.3711 3.0742 17.621 8.8594 23.703 16.621 6.082 7.7617 9.7227 17.156 10.461 26.992z"/>
 <g clip-path="url(#a)">
  <path d="m596.09 523.43c0-0.47266-1.0234-13.066-4.0938-31.488v-0.86719c-11.727-73.051-44.004-195.23-127.92-195.23h-5.5898c6.0859-5.6172 9.5391-13.523 9.5234-21.805-0.019531-7.2773-2.7344-14.289-7.6172-19.68-4.8867-5.3945-11.594-8.7852-18.832-9.5273 15.914-19.223 33.629-36.887 52.898-52.742 2.2031-1.5742 13.461-10.078 15.273-17.949v-2.4375l-1.4961-1.1797v-0.003906c-4.332-3.1367-9.0078-5.7773-13.934-7.8711-21.02-11.492-72.816-28.652-87.301-10.625-2.6016 3.2773-5.7109 6.1211-9.2109 8.4219-11.453 6.8281-24.875 9.6016-38.098 7.8711-17.293-4.2734-35.012-6.5977-52.824-6.9258-5.5352-0.51563-11.027 1.3438-15.113 5.1172-1.6641 2.0781-2.3008 4.7969-1.7305 7.3984 1.6523 7.8711 12.988 16.531 15.113 18.027 19.445 15.828 37.27 33.551 53.215 52.898-7.2188 0.77344-13.898 4.1797-18.762 9.5703-4.8633 5.3867-7.5742 12.379-7.6094 19.637-0.046875 7.8359 3.0781 15.359 8.6602 20.859l0.86719 0.78906h-5.5898c-83.918 0.15625-116.19 122.33-127.92 195.46-3.0703 19.207-4.0938 31.488-4.1719 32.59 0.042969 35.02 13.973 68.594 38.734 93.359 24.762 24.762 58.336 38.691 93.359 38.734h128.16c35.02-0.042969 68.594-13.973 93.355-38.734 24.766-24.766 38.695-58.34 38.734-93.359zm-286.15-337.71c-5.2148-3.2461-9.4609-7.8438-12.277-13.305v-0.70703s1.8906-1.8906 9.2891-2.2031v-0.003906c17.203 0.33203 34.312 2.6055 51.008 6.7734 15.379 2.1328 31.02-1.1484 44.242-9.2891 4.1523-2.793 7.8672-6.1914 11.02-10.078 8.6602-10.785 48.965-2.4414 78.012 12.043 3.4883 1.625 6.8555 3.4922 10.078 5.5898-3.1289 4.4023-6.9922 8.2383-11.414 11.336-21.43 17.367-40.863 37.066-57.941 58.727h-63.996c-17.094-21.723-36.555-41.473-58.02-58.883zm29.914 88.324c0.023437-5.75 2.3203-11.254 6.3906-15.312 4.0742-4.0586 9.5898-6.3359 15.336-6.3359h76.832c5.7812-0.015626 11.32 2.3125 15.352 6.4531 4.1094 3.9805 6.4141 9.4727 6.375 15.195-0.007813 4.625-1.4961 9.1289-4.2422 12.855-2.7461 3.7227-6.6094 6.4727-11.031 7.8477-2.0703 0.73438-4.2578 1.0781-6.4531 1.0234h-76.832c-2.2773 0.042968-4.5469-0.32813-6.6914-1.1016-3.2578-0.85547-6.2422-2.5352-8.6562-4.8828-4.2383-4.1211-6.5508-9.832-6.3789-15.742zm124.22 373.92h-128.16c-32.887-0.023438-64.422-13.074-87.703-36.297-23.285-23.223-36.414-54.727-36.52-87.609 0 0 1.1016-12.754 4.0938-31.961 9.1328-56.68 39.359-188.38 120.13-188.38h128.16c81.004 0 111 131.7 120.05 187.75v0.86719c2.832 17.871 3.9375 30.07 4.0938 31.488-0.0625 32.906-13.16 64.445-36.43 87.715-23.266 23.266-54.809 36.367-87.711 36.43z"/>
 </g>
</svg>