<?xml version="1.0" encoding="UTF-8"?>
<!-- The Best Svg Icon site in the world: iconSvg.co, Visit us! https://iconsvg.co -->
<svg fill="#000000" width="800px" height="800px" version="1.1" viewBox="144 144 512 512" xmlns="http://www.w3.org/2000/svg">
 <g>
  <path d="m634.42 273.66-106.11-105.8c-13.207-13.129-34.656-13.129-47.785 0l-94.043 94.121h-83.895c-5.1914 0-10.078 2.0625-13.742 5.7266l-76.789 76.715-3.5859-5.2656c-2.9766-4.3516-8.8555-5.7266-13.359-3.1289l-34.199 19.312c-4.6562 2.6719-6.4883 8.4727-4.1211 13.281l70.074 143.51c1.4492 2.9023 4.1992 4.9609 7.3281 5.5742 0.60938 0.078125 1.1445 0.15234 1.7539 0.15234 2.5938 0 5.1914-0.99219 7.0977-2.8242l45.113-43.586c3.5859-3.4336 4.1211-8.9297 1.375-13.055l-8.5508-12.594c4.3516 0.53516 8.5508 0.83984 12.594 0.83984 20 0 36.105-6.2578 47.785-13.129l66.715 66.488c6.6406 6.5664 15.266 9.8477 23.969 9.8477 8.625 0 17.328-3.2812 23.895-9.8477l12.672-12.672c2.2148-2.2148 2.2148-5.7266 0-7.9375-2.2148-2.2148-5.7266-2.2148-7.9375 0l-12.672 12.672c-8.7773 8.7773-23.129 8.7773-31.984 0l-8.7773-8.7031 210.53-210.53 8.7773 8.7031c8.7773 8.7773 8.7773 23.129 0 31.984l-62.059 62.059c-2.2148 2.2148-2.2148 5.7266 0 7.9375 1.0703 1.0703 2.5195 1.6016 3.9688 1.6016 1.4492 0 2.9023-0.53516 3.9688-1.6016l62.137-62.137c12.98-13.133 12.98-34.582-0.14844-47.711zm-398.16 232.36-69.008-141.37 32.52-18.398 80 117.79zm35.801-73.203-53.59-78.934 78.246-78.316c1.5273-1.5273 3.6641-2.4414 5.8008-2.4414h72.672l-30.84 30.84h-20.914c-3.0547 0-5.5742 2.5195-5.5742 5.5742s2.5195 5.5742 5.5742 5.5742h80.531c10.078 0 18.32 8.168 18.32 18.32 0 10.078-8.168 18.32-18.32 18.32h-59.082c-3.0547 0-5.5742 2.5195-5.5742 5.5742 0 17.098-13.895 30.992-31.066 30.992-3.0547 0-5.5742 2.5195-5.5742 5.5742 0 3.0547 2.5195 5.5742 5.5742 5.5742 21.375 0 39.082-15.953 41.832-36.562h53.891c16.258 0 29.465-13.207 29.465-29.465 0-16.258-13.207-29.465-29.465-29.465l-43.664-0.015625 32.062-32.062c0.38281-0.30469 0.6875-0.60938 0.99219-0.99219l95.035-95.109c8.7773-8.7773 23.207-8.7773 31.984 0l64.578 64.352-210.53 210.61-42.367-42.215c-2.2148-2.2148-5.7266-2.2148-7.9375 0-2.2148 2.2148-2.2148 5.7266 0 7.9375l8.9297 8.8555c-18.625 10.23-39.082 12.672-60.988 7.4844zm127.17 42.668-15.953-15.879-0.99219-0.99219 210.61-210.53 16.871 16.871z"/>
  <path d="m485.95 267.33c1.9102 1.9102 4.4258 2.9766 7.1758 2.9766 2.6719 0 5.2656-1.0703 7.1758-2.9766l29.695-29.465c1.9102-1.9102 2.9766-4.4258 2.9766-7.1758 0-2.6719-1.0703-5.2656-2.9766-7.1758l-20.383-20.609c-1.9102-1.9102-4.4258-2.9766-7.1758-2.9766-2.6719 0-5.2656 1.0703-7.1758 2.9766l-29.695 29.465c-1.9102 1.9102-2.9766 4.4258-2.9766 7.1758 0 2.6719 1.0703 5.2656 2.9766 7.1758zm16.488-55.723 18.93 19.082-28.242 28.016-18.93-19.082z"/>
  <path d="m434.2 552.06h-111.45c-5.9531 0-10.762 4.8086-10.762 10.762v28.625h-8.168c-5.9531 0-10.762 4.8086-10.762 10.762v29.082c0 5.9531 4.8086 10.762 10.762 10.762h111.45c5.9531 0 10.762-4.8086 10.762-10.762v-28.625h8.168c5.9531 0 10.762-4.8086 10.762-10.762v-29.082c0.003907-5.9531-4.8047-10.762-10.762-10.762zm-59.004 50.531v28.32l-31.223 0.15234v-28.473zm-12.293-11.219v-28.168h31.223v28.168zm-40.152-28.168h28.93v28.168h-28.473zm-18.852 39.387h29.008v28.473l-28.473 0.078125zm111.45 28.168-28.93 0.15234v-28.32h28.473zm0.68359-39.312c-0.23047 0-0.45703-0.078124-0.6875-0.078124h-10.078v-28.168h28.473l0.45703 28.168z"/>
  <path d="m605.26 552.06h-8.168v-28.625c0-5.9531-4.8086-10.762-10.762-10.762h-9.082c18.398-12.137 30.535-32.977 30.535-56.562 0-37.402-30.383-67.785-67.785-67.785s-67.785 30.383-67.785 67.785c0 23.664 12.215 44.426 30.535 56.562h-27.938c-5.9531 0-10.762 4.8086-10.762 10.762v29.082c0 5.9531 4.8086 10.762 10.762 10.762h8.168v28.168h-8.168c-5.9531 0-10.762 4.8086-10.762 10.762v29.082c0 5.9531 4.8086 10.762 10.762 10.762h111.45c5.9531 0 10.762-4.8086 10.762-10.762v-28.625h8.168c5.9531 0 10.762-4.8086 10.762-10.762v-29.082c-0.003906-5.9531-4.8125-10.762-10.691-10.762zm-18.93 0h-28.93v-28.168h28.473zm-40.152 50.531v28.32l-31.223 0.15234v-28.473zm-12.289-11.219v-28.168h31.223v28.168zm12.289-67.48v28.168h-31.223v-28.168zm-62.672-67.785c0-31.223 25.344-56.562 56.562-56.562 31.223 0 56.562 25.344 56.562 56.562 0 31.223-25.344 56.562-56.562 56.562s-56.562-25.344-56.562-56.562zm-8.625 67.785h28.93v28.168h-10.078c-0.91797 0-1.832 0.15234-2.6719 0.38281l-15.801 0.078125zm18.93 39.312h28.93v28.168h-28.473zm-18.93 39.387h29.008v28.473l-28.473 0.078125zm111.45 28.168-28.93 0.15234v-28.32h28.473zm0.6875-39.312c-0.23047 0-0.45703-0.078124-0.6875-0.078124l-10 0.003906v-28.168h28.551l0.45703 28.168z"/>
  <path d="m545.64 489.92v-3.1289c7.5586-2.3672 13.055-9.3906 13.055-17.711 0-10.305-8.3203-18.625-18.625-18.625-4.1211 0-7.4805-3.3594-7.4805-7.4062s3.207-7.3281 7.25-7.4062c0.078125 0 0.15234 0.078125 0.23047 0.078125s0.15234-0.078125 0.23047-0.078125c3.9688 0.15234 7.25 3.3594 7.25 7.4062 0 3.0547 2.5195 5.5742 5.5742 5.5742 3.0547 0 5.5742-2.5195 5.5742-5.5742 0-8.3203-5.4961-15.344-13.055-17.711v-3.1289c0-3.0547-2.5195-5.5742-5.5742-5.5742-3.0547 0-5.5742 2.5195-5.5742 5.5742v3.1289c-7.5586 2.3672-13.055 9.3906-13.055 17.711 0 10.305 8.3984 18.625 18.625 18.625 4.1211 0 7.4062 3.3594 7.4062 7.4805 0 4.0469-3.207 7.25-7.25 7.4062-0.078124 0-0.15234-0.078125-0.23047-0.078125s-0.15234 0.078125-0.23047 0.078125c-3.9688-0.15234-7.25-3.3594-7.25-7.4062 0-3.0547-2.5195-5.5742-5.5742-5.5742-3.0547 0-5.5742 2.5195-5.5742 5.5742 0 8.3203 5.4961 15.266 13.055 17.711v3.1289c0 3.0547 2.5195 5.5742 5.5742 5.5742 3.1289 0 5.6484-2.5195 5.6484-5.6484z"/>
 </g>
</svg>